<svg width="400" height="168" viewBox="0 0 400 168" xmlns="http://www.w3.org/2000/svg">
  <rect width="400" height="168" rx="16" fill="#2B1E16"/>

  <!-- repo icon -->
  <svg x="20" y="20" width="16" height="16" viewBox="0 0 16 16" fill="#A67B5B">
    <path d="M2 2.5A2.5 2.5 0 0 1 4.5 0h8.75a.75.75 0 0 1 .75.75v12.5a.75.75 0 0 1-.75.75h-2.5a.75.75 0 0 1 0-1.5h1.75v-2h-8a1 1 0 0 0-.714 1.7.75.75 0 1 1-1.072 1.05A2.495 2.495 0 0 1 2 11.5Zm10.5-1h-8a1 1 0 0 0-1 1v6.708A2.486 2.486 0 0 1 4.5 9h8Z"/>
  </svg>

  <!-- repo name -->
  <text x="42" y="33" font-family="-apple-system,BlinkMacSystemFont,Segoe UI,Helvetica,Arial,sans-serif" font-size="14" font-weight="bold" fill="#C9A27E">ArcIcons</text>

  <!-- divider -->
  <line x1="20" y1="50" x2="380" y2="50" stroke="#A67B5B" stroke-opacity="0.3" stroke-width="1"/>

  <!-- description -->
  <text x="25" y="88" font-family="-apple-system,BlinkMacSystemFont,Segoe UI,Helvetica,Arial,sans-serif" font-size="12" fill="#EDE6DB">A collection of commands that change the Arc Browser</text>
  <text x="25" y="106" font-family="-apple-system,BlinkMacSystemFont,Segoe UI,Helvetica,Arial,sans-serif" font-size="12" fill="#EDE6DB">icon on macOS.</text>

  <!-- star icon -->
  <svg x="25" y="127" width="14" height="14" viewBox="0 0 16 16" fill="#A67B5B">
    <path d="M8 .25a.75.75 0 0 1 .673.418l1.882 3.815 4.21.612a.75.75 0 0 1 .416 1.279l-3.046 2.97.719 4.192a.751.751 0 0 1-1.088.791L8 12.347l-3.766 1.98a.75.75 0 0 1-1.088-.79l.72-4.194L.818 6.374a.75.75 0 0 1 .416-1.28l4.21-.611L7.327.668A.75.75 0 0 1 8 .25Z"/>
  </svg>
  <text x="43" y="142" font-family="-apple-system,BlinkMacSystemFont,Segoe UI,Helvetica,Arial,sans-serif" font-size="12" fill="#EDE6DB">8</text>
</svg>